<svg clip-rule="evenodd" fill-rule="evenodd" stroke-linejoin="round" stroke-miterlimit="2" viewBox="0 0 560 400" xmlns="http://www.w3.org/2000/svg"><g fill-rule="nonzero" transform="matrix(3.56343 0 0 3.56343 98.276 150.112)"><path d="m28.18 19.06c-2.119-.118-4.054-1.261-5.18-3.06.67-5.34 2.62-7 5.2-7s4.54 2 4.54 5-2 5-4.54 5m0-13.34c-3.743-.152-7.088 2.423-7.9 6.08-.856-1.793-1.504-3.679-1.93-5.62h-6.37v7.9c0 2.87-1.3 5-3.85 5s-4-2.12-4-5v-7.9h-3.66v7.9c-.083 2.188.672 4.328 2.11 5.98 1.42 1.546 3.442 2.404 5.54 2.35 4.41 0 7.5-3.39 7.5-8.24v-5.34c.749 2.873 1.987 5.597 3.66 8.05l-1.96 11.18h3.72l1.29-7.92c.427.368.882.702 1.36 1 1.243.785 2.671 1.227 4.14 1.28h.34.084c4.444 0 8.1-3.656 8.1-8.1 0-.086-.001-.173-.004-.26.001-.063.002-.127.002-.19 0-4.455-3.665-8.12-8.12-8.12-.024 0-.048 0-.072 0"/><path d="m80.8 7.86v-1.68h-3.6v15.63h3.65v-6.12c0-3.77.34-6.48 5.4-6.13v-3.56c-2.36-.18-4.2.31-5.45 1.87"/><path d="m55.51 6.17-2.64 10.94-2.82-10.94h-4.64l-2.82 10.94-2.64-10.94h-3.69l4.05 15.65h4.38l3.04-11.11 3.01 11.11h4.38l4.28-15.65z"/><path d="m67.42 19.07c-2.59 0-4.53-2.05-4.53-5s2-5 4.53-5 4.58 1.93 4.58 4.93-2 5-4.54 5m0-13.35c-.038-.001-.076-.001-.114-.001-4.443 0-8.1 3.657-8.1 8.1 0 .084.001.167.004.251-.003.095-.005.191-.005.286 0 4.487 3.693 8.18 8.18 8.18s8.18-3.693 8.18-8.18c0-.095-.002-.191-.005-.286.002-.067.002-.134.002-.2 0-4.449-3.661-8.11-8.11-8.11-.024 0-.048 0-.072 0"/><path d="m91.47 14.13h.84l5.09 7.69h4.11l-5.85-8.53c2.872-1.184 4.752-4.003 4.74-7.11h-3.63c0 3.37-2.66 4.65-5.3 4.65v-10.83h-3.65v21.82h3.64z"/></g></svg>